<?xml version="1.0" encoding="utf-8" standalone="no"?>
<!DOCTYPE svg PUBLIC "-//W3C//DTD SVG 1.1//EN"
  "http://www.w3.org/Graphics/SVG/1.1/DTD/svg11.dtd">
<svg height="345.6pt" version="1.1" viewBox="0 0 460.8 345.6" width="460.8pt" xmlns="http://www.w3.org/2000/svg" xmlns:xlink="http://www.w3.org/1999/xlink">
 <metadata>
  <rdf:RDF xmlns:cc="http://creativecommons.org/ns#" xmlns:dc="http://purl.org/dc/elements/1.1/" xmlns:rdf="http://www.w3.org/1999/02/22-rdf-syntax-ns#">
   <cc:Work>
    <dc:type rdf:resource="http://purl.org/dc/dcmitype/StillImage"/>
    <dc:date>2021-06-29T11:15:35.644268</dc:date>
    <dc:format>image/svg+xml</dc:format>
    <dc:creator>
     <cc:Agent>
      <dc:title>Matplotlib v3.4.2, https://matplotlib.org/</dc:title>
     </cc:Agent>
    </dc:creator>
   </cc:Work>
  </rdf:RDF>
 </metadata>
 <defs>
  <style type="text/css">*{stroke-linecap:butt;stroke-linejoin:round;}</style>
 </defs>
 <g id="figure_1">
  <g id="patch_1">
   <path d="M 0 345.6 
L 460.8 345.6 
L 460.8 0 
L 0 0 
z
" style="fill:#ffffff;"/>
  </g>
  <g id="axes_1">
   <g id="patch_2">
    <path d="M 57.6 307.584 
L 414.72 307.584 
L 414.72 41.472 
L 57.6 41.472 
z
" style="fill:#ffffff;"/>
   </g>
   <g id="matplotlib.axis_1">
    <g id="xtick_1">
     <g id="line2d_1">
      <defs>
       <path d="M 0 0 
L 0 3.5 
" id="m89a788688a" style="stroke:#000000;stroke-width:0.8;"/>
      </defs>
      <g>
       <use style="stroke:#000000;stroke-width:0.8;" x="73.832727" xlink:href="#m89a788688a" y="307.584"/>
      </g>
     </g>
     <g id="text_1">
      <!-- 0 -->
      <g transform="translate(70.651477 322.182437)scale(0.1 -0.1)">
       <defs>
        <path d="M 2034 4250 
Q 1547 4250 1301 3770 
Q 1056 3291 1056 2328 
Q 1056 1369 1301 889 
Q 1547 409 2034 409 
Q 2525 409 2770 889 
Q 3016 1369 3016 2328 
Q 3016 3291 2770 3770 
Q 2525 4250 2034 4250 
z
M 2034 4750 
Q 2819 4750 3233 4129 
Q 3647 3509 3647 2328 
Q 3647 1150 3233 529 
Q 2819 -91 2034 -91 
Q 1250 -91 836 529 
Q 422 1150 422 2328 
Q 422 3509 836 4129 
Q 1250 4750 2034 4750 
z
" id="DejaVuSans-30" transform="scale(0.015625)"/>
       </defs>
       <use xlink:href="#DejaVuSans-30"/>
      </g>
     </g>
    </g>
    <g id="xtick_2">
     <g id="line2d_2">
      <g>
       <use style="stroke:#000000;stroke-width:0.8;" x="119.742358" xlink:href="#m89a788688a" y="307.584"/>
      </g>
     </g>
     <g id="text_2">
      <!-- 2500 -->
      <g transform="translate(107.017358 322.182437)scale(0.1 -0.1)">
       <defs>
        <path d="M 1228 531 
L 3431 531 
L 3431 0 
L 469 0 
L 469 531 
Q 828 903 1448 1529 
Q 2069 2156 2228 2338 
Q 2531 2678 2651 2914 
Q 2772 3150 2772 3378 
Q 2772 3750 2511 3984 
Q 2250 4219 1831 4219 
Q 1534 4219 1204 4116 
Q 875 4013 500 3803 
L 500 4441 
Q 881 4594 1212 4672 
Q 1544 4750 1819 4750 
Q 2544 4750 2975 4387 
Q 3406 4025 3406 3419 
Q 3406 3131 3298 2873 
Q 3191 2616 2906 2266 
Q 2828 2175 2409 1742 
Q 1991 1309 1228 531 
z
" id="DejaVuSans-32" transform="scale(0.015625)"/>
        <path d="M 691 4666 
L 3169 4666 
L 3169 4134 
L 1269 4134 
L 1269 2991 
Q 1406 3038 1543 3061 
Q 1681 3084 1819 3084 
Q 2600 3084 3056 2656 
Q 3513 2228 3513 1497 
Q 3513 744 3044 326 
Q 2575 -91 1722 -91 
Q 1428 -91 1123 -41 
Q 819 9 494 109 
L 494 744 
Q 775 591 1075 516 
Q 1375 441 1709 441 
Q 2250 441 2565 725 
Q 2881 1009 2881 1497 
Q 2881 1984 2565 2268 
Q 2250 2553 1709 2553 
Q 1456 2553 1204 2497 
Q 953 2441 691 2322 
L 691 4666 
z
" id="DejaVuSans-35" transform="scale(0.015625)"/>
       </defs>
       <use xlink:href="#DejaVuSans-32"/>
       <use x="63.623047" xlink:href="#DejaVuSans-35"/>
       <use x="127.246094" xlink:href="#DejaVuSans-30"/>
       <use x="190.869141" xlink:href="#DejaVuSans-30"/>
      </g>
     </g>
    </g>
    <g id="xtick_3">
     <g id="line2d_3">
      <g>
       <use style="stroke:#000000;stroke-width:0.8;" x="165.651989" xlink:href="#m89a788688a" y="307.584"/>
      </g>
     </g>
     <g id="text_3">
      <!-- 5000 -->
      <g transform="translate(152.926989 322.182437)scale(0.1 -0.1)">
       <use xlink:href="#DejaVuSans-35"/>
       <use x="63.623047" xlink:href="#DejaVuSans-30"/>
       <use x="127.246094" xlink:href="#DejaVuSans-30"/>
       <use x="190.869141" xlink:href="#DejaVuSans-30"/>
      </g>
     </g>
    </g>
    <g id="xtick_4">
     <g id="line2d_4">
      <g>
       <use style="stroke:#000000;stroke-width:0.8;" x="211.56162" xlink:href="#m89a788688a" y="307.584"/>
      </g>
     </g>
     <g id="text_4">
      <!-- 7500 -->
      <g transform="translate(198.83662 322.182437)scale(0.1 -0.1)">
       <defs>
        <path d="M 525 4666 
L 3525 4666 
L 3525 4397 
L 1831 0 
L 1172 0 
L 2766 4134 
L 525 4134 
L 525 4666 
z
" id="DejaVuSans-37" transform="scale(0.015625)"/>
       </defs>
       <use xlink:href="#DejaVuSans-37"/>
       <use x="63.623047" xlink:href="#DejaVuSans-35"/>
       <use x="127.246094" xlink:href="#DejaVuSans-30"/>
       <use x="190.869141" xlink:href="#DejaVuSans-30"/>
      </g>
     </g>
    </g>
    <g id="xtick_5">
     <g id="line2d_5">
      <g>
       <use style="stroke:#000000;stroke-width:0.8;" x="257.471251" xlink:href="#m89a788688a" y="307.584"/>
      </g>
     </g>
     <g id="text_5">
      <!-- 10000 -->
      <g transform="translate(241.565001 322.182437)scale(0.1 -0.1)">
       <defs>
        <path d="M 794 531 
L 1825 531 
L 1825 4091 
L 703 3866 
L 703 4441 
L 1819 4666 
L 2450 4666 
L 2450 531 
L 3481 531 
L 3481 0 
L 794 0 
L 794 531 
z
" id="DejaVuSans-31" transform="scale(0.015625)"/>
       </defs>
       <use xlink:href="#DejaVuSans-31"/>
       <use x="63.623047" xlink:href="#DejaVuSans-30"/>
       <use x="127.246094" xlink:href="#DejaVuSans-30"/>
       <use x="190.869141" xlink:href="#DejaVuSans-30"/>
       <use x="254.492188" xlink:href="#DejaVuSans-30"/>
      </g>
     </g>
    </g>
    <g id="xtick_6">
     <g id="line2d_6">
      <g>
       <use style="stroke:#000000;stroke-width:0.8;" x="303.380881" xlink:href="#m89a788688a" y="307.584"/>
      </g>
     </g>
     <g id="text_6">
      <!-- 12500 -->
      <g transform="translate(287.474631 322.182437)scale(0.1 -0.1)">
       <use xlink:href="#DejaVuSans-31"/>
       <use x="63.623047" xlink:href="#DejaVuSans-32"/>
       <use x="127.246094" xlink:href="#DejaVuSans-35"/>
       <use x="190.869141" xlink:href="#DejaVuSans-30"/>
       <use x="254.492188" xlink:href="#DejaVuSans-30"/>
      </g>
     </g>
    </g>
    <g id="xtick_7">
     <g id="line2d_7">
      <g>
       <use style="stroke:#000000;stroke-width:0.8;" x="349.290512" xlink:href="#m89a788688a" y="307.584"/>
      </g>
     </g>
     <g id="text_7">
      <!-- 15000 -->
      <g transform="translate(333.384262 322.182437)scale(0.1 -0.1)">
       <use xlink:href="#DejaVuSans-31"/>
       <use x="63.623047" xlink:href="#DejaVuSans-35"/>
       <use x="127.246094" xlink:href="#DejaVuSans-30"/>
       <use x="190.869141" xlink:href="#DejaVuSans-30"/>
       <use x="254.492188" xlink:href="#DejaVuSans-30"/>
      </g>
     </g>
    </g>
    <g id="xtick_8">
     <g id="line2d_8">
      <g>
       <use style="stroke:#000000;stroke-width:0.8;" x="395.200143" xlink:href="#m89a788688a" y="307.584"/>
      </g>
     </g>
     <g id="text_8">
      <!-- 17500 -->
      <g transform="translate(379.293893 322.182437)scale(0.1 -0.1)">
       <use xlink:href="#DejaVuSans-31"/>
       <use x="63.623047" xlink:href="#DejaVuSans-37"/>
       <use x="127.246094" xlink:href="#DejaVuSans-35"/>
       <use x="190.869141" xlink:href="#DejaVuSans-30"/>
       <use x="254.492188" xlink:href="#DejaVuSans-30"/>
      </g>
     </g>
    </g>
    <g id="text_9">
     <!-- Rank -->
     <g transform="translate(223.670156 335.860562)scale(0.1 -0.1)">
      <defs>
       <path d="M 2841 2188 
Q 3044 2119 3236 1894 
Q 3428 1669 3622 1275 
L 4263 0 
L 3584 0 
L 2988 1197 
Q 2756 1666 2539 1819 
Q 2322 1972 1947 1972 
L 1259 1972 
L 1259 0 
L 628 0 
L 628 4666 
L 2053 4666 
Q 2853 4666 3247 4331 
Q 3641 3997 3641 3322 
Q 3641 2881 3436 2590 
Q 3231 2300 2841 2188 
z
M 1259 4147 
L 1259 2491 
L 2053 2491 
Q 2509 2491 2742 2702 
Q 2975 2913 2975 3322 
Q 2975 3731 2742 3939 
Q 2509 4147 2053 4147 
L 1259 4147 
z
" id="DejaVuSans-52" transform="scale(0.015625)"/>
       <path d="M 2194 1759 
Q 1497 1759 1228 1600 
Q 959 1441 959 1056 
Q 959 750 1161 570 
Q 1363 391 1709 391 
Q 2188 391 2477 730 
Q 2766 1069 2766 1631 
L 2766 1759 
L 2194 1759 
z
M 3341 1997 
L 3341 0 
L 2766 0 
L 2766 531 
Q 2569 213 2275 61 
Q 1981 -91 1556 -91 
Q 1019 -91 701 211 
Q 384 513 384 1019 
Q 384 1609 779 1909 
Q 1175 2209 1959 2209 
L 2766 2209 
L 2766 2266 
Q 2766 2663 2505 2880 
Q 2244 3097 1772 3097 
Q 1472 3097 1187 3025 
Q 903 2953 641 2809 
L 641 3341 
Q 956 3463 1253 3523 
Q 1550 3584 1831 3584 
Q 2591 3584 2966 3190 
Q 3341 2797 3341 1997 
z
" id="DejaVuSans-61" transform="scale(0.015625)"/>
       <path d="M 3513 2113 
L 3513 0 
L 2938 0 
L 2938 2094 
Q 2938 2591 2744 2837 
Q 2550 3084 2163 3084 
Q 1697 3084 1428 2787 
Q 1159 2491 1159 1978 
L 1159 0 
L 581 0 
L 581 3500 
L 1159 3500 
L 1159 2956 
Q 1366 3272 1645 3428 
Q 1925 3584 2291 3584 
Q 2894 3584 3203 3211 
Q 3513 2838 3513 2113 
z
" id="DejaVuSans-6e" transform="scale(0.015625)"/>
       <path d="M 581 4863 
L 1159 4863 
L 1159 1991 
L 2875 3500 
L 3609 3500 
L 1753 1863 
L 3688 0 
L 2938 0 
L 1159 1709 
L 1159 0 
L 581 0 
L 581 4863 
z
" id="DejaVuSans-6b" transform="scale(0.015625)"/>
      </defs>
      <use xlink:href="#DejaVuSans-52"/>
      <use x="67.232422" xlink:href="#DejaVuSans-61"/>
      <use x="128.511719" xlink:href="#DejaVuSans-6e"/>
      <use x="191.890625" xlink:href="#DejaVuSans-6b"/>
     </g>
    </g>
   </g>
   <g id="matplotlib.axis_2">
    <g id="ytick_1">
     <g id="line2d_9">
      <defs>
       <path d="M 0 0 
L -3.5 0 
" id="mddcda0070d" style="stroke:#000000;stroke-width:0.8;"/>
      </defs>
      <g>
       <use style="stroke:#000000;stroke-width:0.8;" x="57.6" xlink:href="#mddcda0070d" y="57.493014"/>
      </g>
     </g>
     <g id="text_10">
      <!-- $\mathdefault{10^{4}}$ -->
      <g transform="translate(33 61.292233)scale(0.1 -0.1)">
       <defs>
        <path d="M 2419 4116 
L 825 1625 
L 2419 1625 
L 2419 4116 
z
M 2253 4666 
L 3047 4666 
L 3047 1625 
L 3713 1625 
L 3713 1100 
L 3047 1100 
L 3047 0 
L 2419 0 
L 2419 1100 
L 313 1100 
L 313 1709 
L 2253 4666 
z
" id="DejaVuSans-34" transform="scale(0.015625)"/>
       </defs>
       <use transform="translate(0 0.684375)" xlink:href="#DejaVuSans-31"/>
       <use transform="translate(63.623047 0.684375)" xlink:href="#DejaVuSans-30"/>
       <use transform="translate(128.203125 38.965625)scale(0.7)" xlink:href="#DejaVuSans-34"/>
      </g>
     </g>
    </g>
    <g id="ytick_2">
     <g id="line2d_10">
      <defs>
       <path d="M 0 0 
L -2 0 
" id="mb5e3aadee6" style="stroke:#000000;stroke-width:0.6;"/>
      </defs>
      <g>
       <use style="stroke:#000000;stroke-width:0.6;" x="57.6" xlink:href="#mb5e3aadee6" y="244.376221"/>
      </g>
     </g>
     <g id="text_11">
      <!-- $\mathdefault{2\times10^{3}}$ -->
      <g transform="translate(16 248.175439)scale(0.1 -0.1)">
       <defs>
        <path d="M 4488 3438 
L 3059 2003 
L 4488 575 
L 4116 197 
L 2681 1631 
L 1247 197 
L 878 575 
L 2303 2003 
L 878 3438 
L 1247 3816 
L 2681 2381 
L 4116 3816 
L 4488 3438 
z
" id="DejaVuSans-d7" transform="scale(0.015625)"/>
        <path d="M 2597 2516 
Q 3050 2419 3304 2112 
Q 3559 1806 3559 1356 
Q 3559 666 3084 287 
Q 2609 -91 1734 -91 
Q 1441 -91 1130 -33 
Q 819 25 488 141 
L 488 750 
Q 750 597 1062 519 
Q 1375 441 1716 441 
Q 2309 441 2620 675 
Q 2931 909 2931 1356 
Q 2931 1769 2642 2001 
Q 2353 2234 1838 2234 
L 1294 2234 
L 1294 2753 
L 1863 2753 
Q 2328 2753 2575 2939 
Q 2822 3125 2822 3475 
Q 2822 3834 2567 4026 
Q 2313 4219 1838 4219 
Q 1578 4219 1281 4162 
Q 984 4106 628 3988 
L 628 4550 
Q 988 4650 1302 4700 
Q 1616 4750 1894 4750 
Q 2613 4750 3031 4423 
Q 3450 4097 3450 3541 
Q 3450 3153 3228 2886 
Q 3006 2619 2597 2516 
z
" id="DejaVuSans-33" transform="scale(0.015625)"/>
       </defs>
       <use transform="translate(0 0.765625)" xlink:href="#DejaVuSans-32"/>
       <use transform="translate(83.105469 0.765625)" xlink:href="#DejaVuSans-d7"/>
       <use transform="translate(186.376953 0.765625)" xlink:href="#DejaVuSans-31"/>
       <use transform="translate(250 0.765625)" xlink:href="#DejaVuSans-30"/>
       <use transform="translate(314.580078 39.046875)scale(0.7)" xlink:href="#DejaVuSans-33"/>
      </g>
     </g>
    </g>
    <g id="ytick_3">
     <g id="line2d_11">
      <g>
       <use style="stroke:#000000;stroke-width:0.6;" x="57.6" xlink:href="#mb5e3aadee6" y="197.294802"/>
      </g>
     </g>
     <g id="text_12">
      <!-- $\mathdefault{3\times10^{3}}$ -->
      <g transform="translate(16 201.094021)scale(0.1 -0.1)">
       <use transform="translate(0 0.765625)" xlink:href="#DejaVuSans-33"/>
       <use transform="translate(83.105469 0.765625)" xlink:href="#DejaVuSans-d7"/>
       <use transform="translate(186.376953 0.765625)" xlink:href="#DejaVuSans-31"/>
       <use transform="translate(250 0.765625)" xlink:href="#DejaVuSans-30"/>
       <use transform="translate(314.580078 39.046875)scale(0.7)" xlink:href="#DejaVuSans-33"/>
      </g>
     </g>
    </g>
    <g id="ytick_4">
     <g id="line2d_12">
      <g>
       <use style="stroke:#000000;stroke-width:0.6;" x="57.6" xlink:href="#mb5e3aadee6" y="163.890004"/>
      </g>
     </g>
     <g id="text_13">
      <!-- $\mathdefault{4\times10^{3}}$ -->
      <g transform="translate(16 167.689223)scale(0.1 -0.1)">
       <use transform="translate(0 0.765625)" xlink:href="#DejaVuSans-34"/>
       <use transform="translate(83.105469 0.765625)" xlink:href="#DejaVuSans-d7"/>
       <use transform="translate(186.376953 0.765625)" xlink:href="#DejaVuSans-31"/>
       <use transform="translate(250 0.765625)" xlink:href="#DejaVuSans-30"/>
       <use transform="translate(314.580078 39.046875)scale(0.7)" xlink:href="#DejaVuSans-33"/>
      </g>
     </g>
    </g>
    <g id="ytick_5">
     <g id="line2d_13">
      <g>
       <use style="stroke:#000000;stroke-width:0.6;" x="57.6" xlink:href="#mb5e3aadee6" y="137.97923"/>
      </g>
     </g>
    </g>
    <g id="ytick_6">
     <g id="line2d_14">
      <g>
       <use style="stroke:#000000;stroke-width:0.6;" x="57.6" xlink:href="#mb5e3aadee6" y="116.808586"/>
      </g>
     </g>
     <g id="text_14">
      <!-- $\mathdefault{6\times10^{3}}$ -->
      <g transform="translate(16 120.607805)scale(0.1 -0.1)">
       <defs>
        <path d="M 2113 2584 
Q 1688 2584 1439 2293 
Q 1191 2003 1191 1497 
Q 1191 994 1439 701 
Q 1688 409 2113 409 
Q 2538 409 2786 701 
Q 3034 994 3034 1497 
Q 3034 2003 2786 2293 
Q 2538 2584 2113 2584 
z
M 3366 4563 
L 3366 3988 
Q 3128 4100 2886 4159 
Q 2644 4219 2406 4219 
Q 1781 4219 1451 3797 
Q 1122 3375 1075 2522 
Q 1259 2794 1537 2939 
Q 1816 3084 2150 3084 
Q 2853 3084 3261 2657 
Q 3669 2231 3669 1497 
Q 3669 778 3244 343 
Q 2819 -91 2113 -91 
Q 1303 -91 875 529 
Q 447 1150 447 2328 
Q 447 3434 972 4092 
Q 1497 4750 2381 4750 
Q 2619 4750 2861 4703 
Q 3103 4656 3366 4563 
z
" id="DejaVuSans-36" transform="scale(0.015625)"/>
       </defs>
       <use transform="translate(0 0.765625)" xlink:href="#DejaVuSans-36"/>
       <use transform="translate(83.105469 0.765625)" xlink:href="#DejaVuSans-d7"/>
       <use transform="translate(186.376953 0.765625)" xlink:href="#DejaVuSans-31"/>
       <use transform="translate(250 0.765625)" xlink:href="#DejaVuSans-30"/>
       <use transform="translate(314.580078 39.046875)scale(0.7)" xlink:href="#DejaVuSans-33"/>
      </g>
     </g>
    </g>
    <g id="ytick_7">
     <g id="line2d_15">
      <g>
       <use style="stroke:#000000;stroke-width:0.6;" x="57.6" xlink:href="#mb5e3aadee6" y="98.909061"/>
      </g>
     </g>
    </g>
    <g id="ytick_8">
     <g id="line2d_16">
      <g>
       <use style="stroke:#000000;stroke-width:0.6;" x="57.6" xlink:href="#mb5e3aadee6" y="83.403788"/>
      </g>
     </g>
    </g>
    <g id="ytick_9">
     <g id="line2d_17">
      <g>
       <use style="stroke:#000000;stroke-width:0.6;" x="57.6" xlink:href="#mb5e3aadee6" y="69.727168"/>
      </g>
     </g>
    </g>
    <g id="text_15">
     <!-- Degree -->
     <g transform="translate(9.920312 192.724875)rotate(-90)scale(0.1 -0.1)">
      <defs>
       <path d="M 1259 4147 
L 1259 519 
L 2022 519 
Q 2988 519 3436 956 
Q 3884 1394 3884 2338 
Q 3884 3275 3436 3711 
Q 2988 4147 2022 4147 
L 1259 4147 
z
M 628 4666 
L 1925 4666 
Q 3281 4666 3915 4102 
Q 4550 3538 4550 2338 
Q 4550 1131 3912 565 
Q 3275 0 1925 0 
L 628 0 
L 628 4666 
z
" id="DejaVuSans-44" transform="scale(0.015625)"/>
       <path d="M 3597 1894 
L 3597 1613 
L 953 1613 
Q 991 1019 1311 708 
Q 1631 397 2203 397 
Q 2534 397 2845 478 
Q 3156 559 3463 722 
L 3463 178 
Q 3153 47 2828 -22 
Q 2503 -91 2169 -91 
Q 1331 -91 842 396 
Q 353 884 353 1716 
Q 353 2575 817 3079 
Q 1281 3584 2069 3584 
Q 2775 3584 3186 3129 
Q 3597 2675 3597 1894 
z
M 3022 2063 
Q 3016 2534 2758 2815 
Q 2500 3097 2075 3097 
Q 1594 3097 1305 2825 
Q 1016 2553 972 2059 
L 3022 2063 
z
" id="DejaVuSans-65" transform="scale(0.015625)"/>
       <path d="M 2906 1791 
Q 2906 2416 2648 2759 
Q 2391 3103 1925 3103 
Q 1463 3103 1205 2759 
Q 947 2416 947 1791 
Q 947 1169 1205 825 
Q 1463 481 1925 481 
Q 2391 481 2648 825 
Q 2906 1169 2906 1791 
z
M 3481 434 
Q 3481 -459 3084 -895 
Q 2688 -1331 1869 -1331 
Q 1566 -1331 1297 -1286 
Q 1028 -1241 775 -1147 
L 775 -588 
Q 1028 -725 1275 -790 
Q 1522 -856 1778 -856 
Q 2344 -856 2625 -561 
Q 2906 -266 2906 331 
L 2906 616 
Q 2728 306 2450 153 
Q 2172 0 1784 0 
Q 1141 0 747 490 
Q 353 981 353 1791 
Q 353 2603 747 3093 
Q 1141 3584 1784 3584 
Q 2172 3584 2450 3431 
Q 2728 3278 2906 2969 
L 2906 3500 
L 3481 3500 
L 3481 434 
z
" id="DejaVuSans-67" transform="scale(0.015625)"/>
       <path d="M 2631 2963 
Q 2534 3019 2420 3045 
Q 2306 3072 2169 3072 
Q 1681 3072 1420 2755 
Q 1159 2438 1159 1844 
L 1159 0 
L 581 0 
L 581 3500 
L 1159 3500 
L 1159 2956 
Q 1341 3275 1631 3429 
Q 1922 3584 2338 3584 
Q 2397 3584 2469 3576 
Q 2541 3569 2628 3553 
L 2631 2963 
z
" id="DejaVuSans-72" transform="scale(0.015625)"/>
      </defs>
      <use xlink:href="#DejaVuSans-44"/>
      <use x="77.001953" xlink:href="#DejaVuSans-65"/>
      <use x="138.525391" xlink:href="#DejaVuSans-67"/>
      <use x="202.001953" xlink:href="#DejaVuSans-72"/>
      <use x="240.865234" xlink:href="#DejaVuSans-65"/>
      <use x="302.388672" xlink:href="#DejaVuSans-65"/>
     </g>
    </g>
   </g>
   <g id="line2d_18">
    <path clip-path="url(#p8a5f3181da)" d="M 73.832727 53.568 
L 73.979638 57.574057 
L 74.03473 57.815256 
L 74.659101 60.345092 
L 74.824375 60.658282 
L 75.558929 61.793964 
L 75.779296 61.950007 
L 76.091481 62.301734 
L 76.1833 62.411472 
L 76.605669 62.852305 
L 76.770944 62.974117 
L 79.066425 64.60076 
L 79.268428 64.794016 
L 79.433702 64.884565 
L 79.580613 65.01979 
L 81.490454 66.181918 
L 81.876095 66.296728 
L 83.583933 67.11127 
L 83.785935 67.198494 
L 83.969574 67.331172 
L 84.391942 67.53902 
L 85.62232 67.968427 
L 85.824323 68.055179 
L 86.613968 68.28242 
L 86.797607 68.368603 
L 87.752527 68.698515 
L 87.936166 68.7965 
L 88.413626 68.984181 
L 88.67072 69.084936 
L 90.488741 69.642472 
L 92.361854 70.03768 
L 92.802587 70.207206 
L 98.642292 71.736033 
L 99.285027 71.888959 
L 99.670668 72.020372 
L 101.15814 72.366501 
L 101.507053 72.43588 
L 102.241607 72.586848 
L 102.498701 72.647798 
L 103.049616 72.770947 
L 104.316722 73.02004 
L 104.628908 73.078389 
L 106.465293 73.506304 
L 106.685659 73.554258 
L 110.872617 74.38309 
L 111.460261 74.495336 
L 111.845902 74.592097 
L 112.929369 74.770188 
L 113.957745 75.009933 
L 120.293274 76.443153 
L 121.009464 76.58051 
L 126.592075 77.562191 
L 126.904261 77.654401 
L 127.987728 77.837754 
L 128.593735 77.944999 
L 145.727209 80.842799 
L 147.490139 81.136344 
L 149.289797 81.408332 
L 150.446719 81.583939 
L 153.091114 82.061139 
L 153.421663 82.110104 
L 154.11949 82.225465 
L 154.394947 82.273781 
L 157.149525 82.708908 
L 157.847352 82.821775 
L 158.471723 82.908084 
L 159.334824 83.032619 
L 159.922467 83.104042 
L 160.950843 83.229279 
L 161.281392 83.299214 
L 178.121045 85.695946 
L 178.745416 85.797709 
L 181.738724 86.213297 
L 181.940726 86.261948 
L 182.491642 86.373678 
L 182.858919 86.442568 
L 190.994105 87.565833 
L 191.379746 87.64692 
L 192.095936 87.782734 
L 193.271223 87.963608 
L 194.189415 88.083048 
L 205.868826 89.883766 
L 206.731927 90.014095 
L 207.135931 90.08684 
L 208.237763 90.264875 
L 208.84377 90.381759 
L 209.55996 90.50572 
L 210.349606 90.657296 
L 210.973977 90.750978 
L 213.765282 91.154295 
L 214.977296 91.370082 
L 215.71185 91.488521 
L 216.134219 91.545956 
L 216.978956 91.661379 
L 238.336117 95.57914 
L 238.629938 95.637974 
L 253.467931 98.339893 
L 254.092302 98.484188 
L 258.426171 99.348666 
L 259.252544 99.483718 
L 259.619821 99.58003 
L 260.299284 99.741379 
L 260.868563 99.87836 
L 261.823484 100.101297 
L 262.190761 100.155224 
L 262.76004 100.267165 
L 264.082237 100.507432 
L 264.449515 100.609108 
L 267.387731 101.20429 
L 267.901919 101.339961 
L 268.305924 101.444607 
L 268.489562 101.506456 
L 269.260844 101.674668 
L 270.76668 101.96883 
L 271.501234 102.126219 
L 271.703236 102.201162 
L 272.988706 102.443074 
L 273.943626 102.626213 
L 274.310903 102.705079 
L 275.24746 102.886024 
L 275.578009 102.975391 
L 276.20238 103.10128 
L 279.96697 104.012106 
L 280.260791 104.102292 
L 281.307531 104.344603 
L 281.491169 104.397112 
L 282.519545 104.588413 
L 282.941914 104.679571 
L 284.521205 105.051322 
L 286.155588 105.456238 
L 286.706504 105.575993 
L 298.698099 108.760773 
L 298.881738 108.856858 
L 302.481053 109.964182 
L 302.940149 110.093028 
L 304.335802 110.457701 
L 305.32745 110.708811 
L 305.56618 110.777011 
L 306.153823 110.991809 
L 306.447645 111.092872 
L 307.072016 111.261623 
L 307.494384 111.397938 
L 307.788206 111.550541 
L 308.082028 111.611465 
L 308.504396 111.783752 
L 308.669671 111.851826 
L 309.055312 111.963032 
L 309.918413 112.308667 
L 313.407545 113.385455 
L 313.774822 113.509088 
L 314.068644 113.648333 
L 314.362465 113.747288 
L 314.52774 113.796627 
L 315.24393 114.038403 
L 315.501024 114.147563 
L 315.81321 114.283959 
L 316.474308 114.483116 
L 317.355773 114.794627 
L 320.128715 115.863399 
L 320.404173 116.001788 
L 321.028544 116.254464 
L 321.285638 116.381288 
L 321.450912 116.430969 
L 321.818189 116.581625 
L 322.001828 116.668073 
L 325.307321 117.968838 
L 325.454232 118.120056 
L 325.748054 118.278154 
L 325.96842 118.361128 
L 326.500972 118.513781 
L 327.16207 118.756991 
L 327.749714 118.982214 
L 327.896624 119.056498 
L 328.44754 119.253483 
L 329.97174 120.054216 
L 330.302289 120.177451 
L 330.706294 120.361881 
L 331.018479 120.554799 
L 331.422484 120.690773 
L 332.597771 121.165136 
L 332.744681 121.269665 
L 333.020139 121.412339 
L 333.956696 121.882629 
L 334.158698 122.003025 
L 334.489247 122.111168 
L 334.911616 122.275812 
L 335.866536 122.761761 
L 336.748001 123.258221 
L 336.968367 123.377676 
L 340.292225 124.900876 
L 340.494227 125.069465 
L 340.732957 125.191757 
L 342.459159 125.96371 
L 342.624434 126.065462 
L 342.826436 126.147482 
L 343.212077 126.347701 
L 347.105214 128.559881 
L 347.288852 128.683227 
L 347.490855 128.761776 
L 347.711221 128.89966 
L 349.235421 129.654501 
L 349.584334 129.808644 
L 350.539254 130.516635 
L 352.04509 131.342681 
L 352.192001 131.43925 
L 352.320548 131.536119 
L 352.485823 131.668475 
L 352.76128 131.784534 
L 353.110194 132.049546 
L 353.275468 132.180722 
L 353.440743 132.315585 
L 354.04675 132.63035 
L 355.056762 133.249475 
L 355.277128 133.444085 
L 355.607678 133.684154 
L 355.846408 133.860061 
L 356.085138 133.986881 
L 356.250412 134.198017 
L 356.342232 134.300816 
L 356.691145 134.605698 
L 356.911511 134.723987 
L 357.09515 134.870023 
L 357.370607 134.992316 
L 357.554246 135.085151 
L 357.756248 135.232209 
L 358.490802 135.848299 
L 358.637713 135.953551 
L 358.821352 136.084896 
L 359.041718 136.41084 
L 359.427359 136.796169 
L 359.592633 136.93991 
L 360.749556 137.902641 
L 361.190289 138.263437 
L 361.557566 138.513224 
L 361.667749 138.621225 
L 361.998298 138.809268 
L 363.908139 140.274597 
L 364.110141 140.424159 
L 364.348871 140.597379 
L 365.267064 141.519416 
L 365.48743 141.699218 
L 365.707796 141.99781 
L 365.909799 142.235268 
L 366.111801 142.34821 
L 366.29544 142.467635 
L 366.552534 142.759936 
L 366.699444 142.879761 
L 366.919811 143.07384 
L 367.066721 143.175045 
L 367.268724 143.337317 
L 367.562545 143.599468 
L 367.819639 143.883663 
L 368.040006 144.082024 
L 368.370555 144.406817 
L 368.646013 144.627295 
L 368.829651 144.847108 
L 369.105109 145.070127 
L 369.25202 145.326005 
L 369.600933 145.890289 
L 369.784572 146.137245 
L 369.949846 146.326669 
L 370.096757 146.462775 
L 370.44567 146.775992 
L 370.959858 147.424746 
L 371.657684 148.06686 
L 371.804595 148.198125 
L 372.153508 148.446536 
L 373.714436 150.26965 
L 373.879711 150.393867 
L 374.100077 150.941185 
L 376.45065 155.065573 
L 376.597561 155.197643 
L 376.836291 155.482161 
L 376.946474 155.570031 
L 377.16684 155.770789 
L 377.258659 155.842191 
L 377.460662 156.318081 
L 377.607573 156.402966 
L 377.809575 156.73805 
L 378.103397 157.048784 
L 378.176852 157.108874 
L 378.378854 157.526523 
L 378.45231 157.65903 
L 379.076681 158.699888 
L 379.223592 158.858202 
L 379.370502 159.153571 
L 379.443958 159.237236 
L 379.590869 159.354848 
L 379.994873 159.971726 
L 380.233604 160.64874 
L 380.435606 160.787518 
L 380.527425 161.002041 
L 380.711064 161.364203 
L 381.17016 161.843582 
L 381.261979 161.980798 
L 381.684348 162.708305 
L 382.198536 163.656611 
L 382.36381 163.996126 
L 382.620904 164.689955 
L 382.804543 164.906312 
L 383.539097 166.213669 
L 383.612552 166.40841 
L 383.869646 166.92494 
L 384.273651 167.807776 
L 384.420562 168.21196 
L 384.494017 168.282878 
L 384.640928 168.734021 
L 384.677656 168.771527 
L 384.824567 169.163045 
L 385.136752 169.75006 
L 385.595848 170.940596 
L 385.632576 171.040984 
L 386.054945 172.478159 
L 386.183492 172.716368 
L 386.403858 173.530263 
L 387.432234 176.784707 
L 387.560781 177.157084 
L 389.250255 183.152653 
L 389.488985 183.960086 
L 390.352086 187.398554 
L 390.407178 187.55167 
L 390.645908 188.4057 
L 390.664272 188.407636 
L 390.84791 188.887346 
L 390.976457 189.362177 
L 391.105004 189.938423 
L 391.160096 190.07372 
L 391.435553 191.008376 
L 392.206835 193.870751 
L 392.390474 195.002741 
L 393.069936 198.15894 
L 393.216847 198.88487 
L 393.235211 198.906376 
L 393.455577 200.57415 
L 393.510669 200.723071 
L 393.731035 201.687866 
L 393.80449 201.904938 
L 394.557408 206.083147 
L 394.869594 207.244333 
L 394.998141 207.687864 
L 395.034868 207.872187 
L 396.246883 213.996183 
L 396.412157 215.507212 
L 397.183439 222.440328 
L 397.348714 227.171258 
L 397.367078 227.3236 
L 397.513989 230.454259 
L 397.679263 232.5263 
L 397.826174 235.901676 
L 398.13836 252.043589 
L 398.395453 259.48882 
L 398.432181 264.442265 
L 398.487273 295.488 
L 398.487273 295.488 
" style="fill:none;stroke:#1f77b4;stroke-linecap:square;stroke-width:1.5;"/>
   </g>
   <g id="patch_3">
    <path d="M 57.6 307.584 
L 57.6 41.472 
" style="fill:none;stroke:#000000;stroke-linecap:square;stroke-linejoin:miter;stroke-width:0.8;"/>
   </g>
   <g id="patch_4">
    <path d="M 414.72 307.584 
L 414.72 41.472 
" style="fill:none;stroke:#000000;stroke-linecap:square;stroke-linejoin:miter;stroke-width:0.8;"/>
   </g>
   <g id="patch_5">
    <path d="M 57.6 307.584 
L 414.72 307.584 
" style="fill:none;stroke:#000000;stroke-linecap:square;stroke-linejoin:miter;stroke-width:0.8;"/>
   </g>
   <g id="patch_6">
    <path d="M 57.6 41.472 
L 414.72 41.472 
" style="fill:none;stroke:#000000;stroke-linecap:square;stroke-linejoin:miter;stroke-width:0.8;"/>
   </g>
  </g>
 </g>
 <defs>
  <clipPath id="p8a5f3181da">
   <rect height="266.112" width="357.12" x="57.6" y="41.472"/>
  </clipPath>
 </defs>
</svg>
